HIERARCHY
ROOT Hips
{
	OFFSET 0.00000 0.00000 0.00000
	CHANNELS 6 Xposition Yposition Zposition Zrotation Yrotation Xrotation 
	JOINT LHipJoint
	{
		OFFSET 0 0 0
		CHANNELS 3 Zrotation Yrotation Xrotation
		JOINT LeftHip
		{
			OFFSET 1.78158 -1.79992 1.25746
			CHANNELS 3 Zrotation Yrotation Xrotation
			JOINT LeftKnee
			{
				OFFSET 2.48433 -6.82566 0.00000
				CHANNELS 3 Zrotation Yrotation Xrotation
				JOINT LeftAnkle
				{
					OFFSET 2.69722 -7.41057 0.00000
					CHANNELS 3 Zrotation Yrotation Xrotation
					JOINT LeftToe
					{
						OFFSET 0.10733 -0.29489 1.75071
						CHANNELS 3 Zrotation Yrotation Xrotation
						End Site
						{
							OFFSET 0.00000 -0.00000 0.90224
						}
					}
				}
			}
		}
	}
	JOINT RHipJoint
	{
		OFFSET 0 0 0
		CHANNELS 3 Zrotation Yrotation Xrotation
		JOINT RightHip
		{
			OFFSET -1.91234 -1.79993 1.25746
			CHANNELS 3 Zrotation Yrotation Xrotation
			JOINT RightKnee
			{
				OFFSET -2.33122 -6.40498 0.00000
				CHANNELS 3 Zrotation Yrotation Xrotation
				JOINT RightAnkle
				{
					OFFSET -2.75667 -7.57390 0.00000
					CHANNELS 3 Zrotation Yrotation Xrotation
					JOINT RightToe
					{
						OFFSET -0.15946 -0.43811 1.78925
						CHANNELS 3 Zrotation Yrotation Xrotation
						End Site
						{
							OFFSET -0.00000 -0.00000 0.93158
						}
					}
				}
			}
		}
	}
	JOINT lowerback
	{
		OFFSET 0 0 0
		CHANNELS 3 Zrotation Yrotation Xrotation
		JOINT Chest
		{
			OFFSET -0.02267 2.03993 -0.26238
			CHANNELS 3 Zrotation Yrotation Xrotation
			JOINT Chest2
			{
				OFFSET 0.02263 2.06220 -0.00892
				CHANNELS 3 Zrotation Yrotation Xrotation
				JOINT lowerneck
				{
					OFFSET 0 0 0
					CHANNELS 3 Zrotation Yrotation Xrotation
					JOINT Neck
					{
						OFFSET -0.06177 1.95978 0.28606
						CHANNELS 3 Zrotation Yrotation Xrotation
						JOINT Head
						{
							OFFSET 0.08482 1.96576 -0.43252
							CHANNELS 3 Zrotation Yrotation Xrotation
							End Site
							{
								OFFSET 0.02787 2.02739 -0.18071
							}
						}
					}
				}
				JOINT LeftCollar
				{
					OFFSET 0 0 0
					CHANNELS 3 Zrotation Yrotation Xrotation
					JOINT LeftShoulder
					{
						OFFSET 3.80978 1.64906 0.29973
CHANNELS 3 Zrotation Xrotation Yrotation
						JOINT LeftElbow
						{
OFFSET 0 -4.930420 0.000000
CHANNELS 3 Zrotation Xrotation Yrotation
							JOINT LeftWrist
							{
OFFSET 0 -3.681770 0.000000
CHANNELS 3 Zrotation Xrotation Yrotation
								JOINT lhand
								{
									OFFSET 0 0 0
CHANNELS 3 Zrotation Xrotation Yrotation
									JOINT LFingers
									{
OFFSET 0 -0.721480 0.000000
CHANNELS 3 Zrotation Xrotation Yrotation
										End Site
										{
OFFSET 0 -0.581680 0.000000
										}
									}
								}
								JOINT LThumb
								{
OFFSET 0 0.000000 0.000000
CHANNELS 3 Zrotation Xrotation Yrotation
									End Site
									{
OFFSET 0 -0.590560 0.590560
									}
								}
							}
						}
					}
				}
				JOINT RightCollar
				{
					OFFSET 0 0 0
					CHANNELS 3 Zrotation Yrotation Xrotation
					JOINT RightShoulder
					{
						OFFSET -3.49270 1.85636 0.09297
CHANNELS 3 Zrotation Xrotation Yrotation
						JOINT RightElbow
						{
OFFSET 0 -5.079050 -0.000000
CHANNELS 3 Zrotation Xrotation Yrotation
							JOINT RightWrist
							{
OFFSET 0 -3.543940 0.000000
CHANNELS 3 Zrotation Xrotation Yrotation
								JOINT rhand
								{
									OFFSET 0 0 0
CHANNELS 3 Zrotation Xrotation Yrotation
									JOINT RFingers
									{
OFFSET 0 -0.681160 0.000000
CHANNELS 3 Zrotation Xrotation Yrotation
										End Site
										{
OFFSET 0 -0.549170 0.000000
										}
									}
								}
								JOINT RThumb
								{
OFFSET 0 0.000000 0.000000
CHANNELS 3 Zrotation Xrotation Yrotation
									End Site
									{
OFFSET 0 -0.557550 0.557550
									}
								}
							}
						}
					}
				}
			}
		}
	}
}
MOTION
Frames: 11
Frame Time: 0.008333333333333333
-9.491351 18.020356 -16.487700 -164.830556 87.232816 -159.049574 0.000000 0.000000 0.000000 -12.734596 -15.165804 -4.205781 1.435292 7.574817 21.429852 1.406997 1.748807 -23.103808 0.544700 -4.728064 -13.134534 0.000000 0.000000 0.000000 14.180207 -4.185773 3.771433 0.000000 0.000000 0.000000 0.088459 -10.562773 -13.581644 -0.040448 1.298472 -3.570511 0.087672 -0.879065 3.884769 2.162447 -1.014118 -3.526970 2.287260 -0.438089 -5.802606 -5.602032 -3.373010 -23.063783 2.858964 -3.280229 29.933095 1.534213 -1.496430 14.288392 0.000000 0.000000 0.000000 8.675602 -8.913582 -57.706411 105.069553 -59.123673 73.012135 48.469269 -20.124194 -13.448330 0.000000 0.000000 0.000000 -7.125000 0.000000 0.000000 20.868496 48.643007 -1.953607 0.000000 0.000000 0.000000 -11.972274 -9.146223 50.633833 -95.447633 -59.887050 -64.715935 -28.307256 1.376618 27.530423 0.000000 0.000000 0.000000 7.125000 0.000000 0.000000 2.363125 60.591491 -0.898716
-9.498542 18.023292 -16.489022 -164.821055 87.292427 -158.975669 0.000000 0.000000 0.000000 -12.728115 -15.070613 -4.343767 1.435104 7.574233 21.428099 1.395378 1.774526 -23.022111 0.588299 -4.909147 -13.649918 0.000000 0.000000 0.000000 14.163896 -4.098312 3.675447 0.000000 0.000000 0.000000 0.095368 -10.610479 -13.533827 -0.041936 1.321401 -3.633610 0.139032 -0.840871 3.923666 2.101005 -0.962994 -3.531628 2.190788 -0.416377 -5.833449 -5.638183 -3.398462 -23.085034 2.862657 -3.305633 29.857611 1.535529 -1.512154 14.262187 0.000000 0.000000 0.000000 8.773267 -10.003546 -57.596712 104.041884 -59.239810 72.129424 48.428248 -20.325446 -13.562724 0.000000 0.000000 0.000000 -7.125000 0.000000 0.000000 20.860789 48.787519 -2.029821 0.000000 0.000000 0.000000 -11.942503 -10.201012 50.387664 -94.553803 -59.920212 -63.942633 -27.976825 1.098334 27.573739 0.000000 0.000000 0.000000 7.125000 0.000000 0.000000 2.769656 60.554649 -1.050505
-9.505694 18.026000 -16.491444 -164.613553 87.316815 -158.695793 0.000000 0.000000 0.000000 -12.697609 -14.989992 -4.509626 1.438153 7.581820 21.450936 1.382648 1.790673 -22.927142 0.638682 -5.111075 -14.225999 0.000000 0.000000 0.000000 14.168011 -4.038526 3.566999 0.000000 0.000000 0.000000 0.103091 -10.666440 -13.485041 -0.044544 1.361303 -3.743453 0.217632 -0.813539 3.952872 2.054176 -0.923520 -3.538588 2.095024 -0.401107 -5.860816 -5.681718 -3.420887 -23.106616 2.859742 -3.321417 29.774167 1.537129 -1.525673 14.232152 0.000000 0.000000 0.000000 8.826787 -11.074731 -57.496239 102.912955 -59.358028 71.158679 48.393940 -20.536089 -13.646811 0.000000 0.000000 0.000000 -7.125000 0.000000 0.000000 20.850548 48.892710 -2.084739 0.000000 0.000000 0.000000 -11.909887 -11.229999 50.147841 -93.607759 -59.949189 -63.123888 -27.680472 0.771849 27.493370 0.000000 0.000000 0.000000 7.125000 0.000000 0.000000 3.082927 60.395451 -1.157578
-9.512663 18.028546 -16.494938 -164.223285 87.307436 -158.225735 0.000000 0.000000 0.000000 -12.645556 -14.933714 -4.696113 1.444169 7.596962 21.496513 1.370034 1.797170 -22.828611 0.690281 -5.310846 -14.797333 0.000000 0.000000 0.000000 14.190502 -4.005899 3.448090 0.000000 0.000000 0.000000 0.110701 -10.722440 -13.438709 -0.047525 1.406446 -3.867790 0.317730 -0.799576 3.971520 2.024010 -0.899286 -3.548326 2.005697 -0.393781 -5.884540 -5.726542 -3.438255 -23.130282 2.842852 -3.324301 29.689110 1.535688 -1.535865 14.200964 0.000000 0.000000 0.000000 8.833986 -12.120796 -57.395405 101.691077 -59.475730 70.106902 48.374258 -20.739066 -13.701524 0.000000 0.000000 0.000000 -7.125000 0.000000 0.000000 20.846677 48.961742 -2.121008 0.000000 0.000000 0.000000 -11.875409 -12.238703 49.928344 -92.594299 -59.973610 -62.246555 -27.477948 0.444642 27.312734 0.000000 0.000000 0.000000 7.125000 0.000000 0.000000 3.242806 60.153754 -1.199675
-9.519138 18.031031 -16.499607 -163.673653 87.265874 -157.589516 0.000000 0.000000 0.000000 -12.575158 -14.918204 -4.892173 1.452903 7.619023 21.562846 1.359644 1.793104 -22.742929 0.733047 -5.469788 -15.253528 0.000000 0.000000 0.000000 14.228374 -4.000328 3.322202 0.000000 0.000000 0.000000 0.116272 -10.762194 -13.402569 -0.049332 1.432874 -3.940673 0.430367 -0.803341 3.976639 2.014598 -0.896425 -3.561276 1.932739 -0.397019 -5.903137 -5.761854 -3.446914 -23.160248 2.799709 -3.308715 29.613441 1.525599 -1.540684 14.173483 0.000000 0.000000 0.000000 8.786025 -13.127452 -57.280735 100.371356 -59.588367 68.969388 48.381260 -20.903127 -13.724488 0.000000 0.000000 0.000000 -7.125000 0.000000 0.000000 20.861585 48.994268 -2.139981 0.000000 0.000000 0.000000 -11.836483 -13.229246 49.752085 -91.479598 -59.990927 -61.281384 -27.475991 0.206568 27.098001 0.000000 0.000000 0.000000 7.125000 0.000000 0.000000 3.154864 59.925769 -1.149982
-9.524908 18.033644 -16.504595 -163.072093 87.216813 -156.899447 0.000000 0.000000 0.000000 -12.501555 -14.935581 -5.077208 1.462534 7.643199 21.635461 1.352971 1.783525 -22.685005 0.759017 -5.563853 -15.524070 0.000000 0.000000 0.000000 14.268425 -4.002128 3.200224 0.000000 0.000000 0.000000 0.118318 -10.772139 -13.381686 -0.048510 1.420902 -3.907715 0.533901 -0.818452 3.970412 2.018457 -0.908693 -3.574611 1.879846 -0.406988 -5.914875 -5.777485 -3.446597 -23.199702 2.733937 -3.279283 29.556043 1.505765 -1.540374 14.154399 0.000000 0.000000 0.000000 8.695625 -14.091157 -57.145295 98.975028 -59.690234 67.764369 48.401917 -21.005005 -13.729310 0.000000 0.000000 0.000000 -7.125000 0.000000 0.000000 20.885468 49.005447 -2.148634 0.000000 0.000000 0.000000 -11.780953 -14.199788 49.622752 -90.266110 -59.997411 -60.230504 -27.684688 0.077027 26.893524 0.000000 0.000000 0.000000 7.125000 0.000000 0.000000 2.829984 59.759648 -1.020669
-9.530240 18.036279 -16.509325 -162.458322 87.178892 -156.200377 0.000000 0.000000 0.000000 -12.433499 -14.962084 -5.245229 1.471810 7.666365 21.705114 1.349076 1.773890 -22.649377 0.773428 -5.615435 -15.672508 0.000000 0.000000 0.000000 14.303814 -3.995366 3.087714 0.000000 0.000000 0.000000 0.118173 -10.762856 -13.368981 -0.046324 1.388164 -3.817522 0.620008 -0.835307 3.959093 2.025143 -0.924507 -3.585531 1.839831 -0.417973 -5.920767 -5.777469 -3.441051 -23.245303 2.661853 -3.245740 29.511485 1.481671 -1.537239 14.141548 0.000000 0.000000 0.000000 8.583125 -15.024870 -56.995317 97.532789 -59.780963 66.518654 48.411757 -21.063096 -13.732385 0.000000 0.000000 0.000000 -7.125000 0.000000 0.000000 20.897088 49.011837 -2.153318 0.000000 0.000000 0.000000 -11.703457 -15.150766 49.518943 -88.992951 -59.993414 -59.127909 -28.096208 0.236739 27.105473 0.000000 0.000000 0.000000 7.125000 0.000000 0.000000 2.435632 60.087391 -0.893617
-9.535167 18.038826 -16.513444 -161.835068 87.161011 -155.498287 0.000000 0.000000 0.000000 -12.374855 -14.985988 -5.393067 1.480252 7.687320 21.768234 1.347544 1.766682 -22.633794 0.779023 -5.635231 -15.729476 0.000000 0.000000 0.000000 14.332082 -3.972269 2.987880 0.000000 0.000000 0.000000 0.116650 -10.740751 -13.360170 -0.043591 1.346858 -3.703689 0.684032 -0.849302 3.945746 2.030268 -0.938341 -3.592427 1.810284 -0.427214 -5.921013 -5.763593 -3.431696 -23.294864 2.591625 -3.212446 29.476603 1.456095 -1.532213 14.133481 0.000000 0.000000 0.000000 8.454783 -15.932389 -56.832619 96.052000 -59.859217 65.238645 48.395441 -21.087008 -13.741821 0.000000 0.000000 0.000000 -7.125000 0.000000 0.000000 20.882387 49.020754 -2.156367 0.000000 0.000000 0.000000 -11.599716 -16.080224 49.431102 -87.672410 -59.977965 -57.984362 -28.712742 0.771013 27.903070 0.000000 0.000000 0.000000 7.125000 0.000000 0.000000 2.041392 61.091983 -0.797324
-9.539609 18.041010 -16.516229 -161.184544 87.179006 -154.782259 0.000000 0.000000 0.000000 -12.332089 -14.986440 -5.514363 1.487178 7.704336 21.819659 1.347770 1.766080 -22.635300 0.780680 -5.641029 -15.746266 0.000000 0.000000 0.000000 14.349926 -3.918812 2.907318 0.000000 0.000000 0.000000 0.115370 -10.718465 -13.346693 -0.042010 1.323065 -3.638035 0.716483 -0.852389 3.935732 2.027031 -0.940599 -3.592050 1.788675 -0.429849 -5.915441 -5.738446 -3.420403 -23.343879 2.537942 -3.186546 29.445357 1.434035 -1.526641 14.127231 0.000000 0.000000 0.000000 8.316321 -16.816394 -56.658469 94.534486 -59.920806 63.925851 48.320827 -21.093709 -13.772163 0.000000 0.000000 0.000000 -7.125000 0.000000 0.000000 20.811086 49.044095 -2.160809 0.000000 0.000000 0.000000 -11.459371 -16.981320 49.343989 -86.315871 -59.947547 -56.810030 -29.550894 1.834514 29.558293 0.000000 0.000000 0.000000 7.125000 0.000000 0.000000 1.753324 63.073221 -0.767207
-9.543921 18.042606 -16.517383 -160.449815 87.236623 -154.000302 0.000000 0.000000 0.000000 -12.305447 -14.944658 -5.610332 1.492539 7.717697 21.859856 1.348061 1.773964 -22.641048 0.787623 -5.665560 -15.816974 0.000000 0.000000 0.000000 14.360655 -3.830889 2.848949 0.000000 0.000000 0.000000 0.117485 -10.722223 -13.314286 -0.044411 1.359653 -3.739028 0.715382 -0.838570 3.938708 2.012566 -0.923471 -3.582731 1.772614 -0.421845 -5.907911 -5.711601 -3.410349 -23.382385 2.514155 -3.174418 29.403732 1.421178 -1.522440 14.115499 0.000000 0.000000 0.000000 8.169699 -17.687605 -56.474722 92.977547 -59.962747 62.578265 48.157568 -21.129588 -13.838146 0.000000 0.000000 0.000000 -7.125000 0.000000 0.000000 20.654665 49.094590 -2.169690 0.000000 0.000000 0.000000 -11.284235 -17.855784 49.235270 -84.931459 -59.899765 -55.612069 -29.617099 1.898649 30.002721 0.000000 0.000000 0.000000 7.125000 0.000000 0.000000 1.881061 63.562000 -0.847471
-9.548293 18.043665 -16.517516 -159.631170 87.315492 -153.149406 0.000000 0.000000 0.000000 -12.287647 -14.873800 -5.690244 1.497172 7.729158 21.894354 1.347794 1.786395 -22.644284 0.800125 -5.709153 -15.942770 0.000000 0.000000 0.000000 14.369644 -3.724412 2.805345 0.000000 0.000000 0.000000 0.123041 -10.753913 -13.264572 -0.050668 1.449724 -3.987338 0.691892 -0.813150 3.955929 1.993133 -0.892740 -3.567699 1.762923 -0.406447 -5.902596 -5.688634 -3.402717 -23.408893 2.512115 -3.172559 29.349074 1.415778 -1.520032 14.096597 0.000000 0.000000 0.000000 8.013103 -18.555555 -56.283256 91.379588 -59.988530 61.194712 47.926387 -21.211242 -13.933696 0.000000 0.000000 0.000000 -7.125000 0.000000 0.000000 20.433134 49.168684 -2.182944 0.000000 0.000000 0.000000 -11.093050 -18.716628 49.105223 -83.514739 -59.837068 -54.386790 -29.585049 1.788170 30.150113 0.000000 0.000000 0.000000 7.125000 0.000000 0.000000 1.993416 63.709305 -0.904511
